<svg id="Layer_1" data-name="Layer 1" xmlns="http://www.w3.org/2000/svg" viewBox="0 0 948.64 948.64"><defs><style>.cls-1{fill:#00676f;}.cls-2{fill:#f5ee77;}</style></defs><circle class="cls-1" cx="474.32" cy="474.32" r="474.32"/><path class="cls-2" d="M799.79,727.18l3.34,6-2,3.34-2,4-4.67,2.68h-8.67l-36-2.68H739.05l-42-.66H686.32l-42.71,2-8-.66-6-4.68-23.36-26-6-8-20.68-29.36-6-7.36-26-26-6.67-8-22-26-5.34-7.34-3.33-6-4.67-2-4,2.68-1.34,8.68v46l-1.33,36v10.67l.67,16v10l-.67,10-.67,6.68-3.34,2.68-8,1.34-20.7,1.32H445.38l-30.7-2.66-10.67.66-33.38,2.68-5.33-2-2.68-4-.66-6-.67-9.35V711.16l.67-16.69.66-11.33-2.67-36V600.37l.67-10.68,2-36.71.67-10.68V495.59l-1.33-36V448.87l1.33-36.71V401.48L362,318.71V308l2-36,.67-8,2-3.34,6.67-1.32,10,.66L404,262h10.67l30.7-2.66h10.69l30.7,2,7.33.66,3.34,2,2,5.34.66,6.67-.66,8.68-2,22-.67,10.69,2,35.36v10.69l.67,35.36,1.33,7.36,5.34,1.32,7.34-4.66,20.69-28.7,36-43.4L590.89,302l6.67-8,23.36-26.7,5.34-5.34,6.67-1.34,30.71-2h10.67L715,261.32l25.36.66h10.68l25.36-.66,7.34.66,3.34,2.68,1.34,1.34-.67,2-5.34,6L757.07,302l-6.67,8L727,340.74l-6.67,8-26,28.7-6.68,8L663,414.83l-6.68,8-24,29.36-7.35,8-16.68,15.35-7.35,8-3.33,4-3.34,5.34,1.34,4,4.66,6,24.7,32.71,7.35,8L661.63,573l6.67,8,26,32,6.67,8,27.36,30.7,6.68,8,28.7,30.05,6.68,8Z" transform="translate(-77.09 -26.6)"/></svg>
