<svg id="Layer_1" data-name="Layer 1" xmlns="http://www.w3.org/2000/svg" viewBox="0 0 948.64 948.64"><defs><style>.cls-1{fill:#00676f;}.cls-2{fill:#f5ee77;}</style></defs><circle class="cls-1" cx="474.32" cy="474.32" r="474.32"/><path class="cls-2" d="M806.36,765.23l3.9,7-2.33,3.9-2.35,4.67L800.13,784H790l-42.11-3.13H735.41l-49.11-.77H673.81l-49.9,2.33-9.35-.77-7-5.46-27.29-30.41-7-9.36-24.17-34.3-7-8.59-30.41-30.41-7.79-9.34-25.74-30.42-6.23-8.57-3.9-7-5.45-2.35-4.68,3.12-1.57,10.14v53.8l-1.55,42.1V727l.78,18.72v11.7l-.78,11.68-.78,7.8-3.9,3.13-9.36,1.56-24.17,1.54H392.35l-35.87-3.1-12.47.77L305,784l-6.24-2.34-3.13-4.69-.77-7L294.11,759V746.53l.78-19.5.77-13.24-3.11-42.1v-54.6l.78-12.47,2.33-42.89.79-12.47V494.69l-1.56-42.1V440.12l1.56-42.9V384.76l-1.56-96.7V275.59l2.34-42.1.78-9.36,2.34-3.9,7.79-1.54,11.7.77L344,221.79h12.47l35.87-3.1h12.48L440.69,221l8.57.77,3.9,2.34,2.35,6.23.77,7.8-.77,10.14L453.16,274l-.78,12.49,2.35,41.31v12.49l.78,41.31,1.55,8.59,6.24,1.54,8.58-5.44,24.17-33.53,42.1-50.69,24.18-33.51,7.79-9.37L597.41,228l6.24-6.24,7.8-1.56,35.86-2.34h12.47L707.35,221l29.63.77h12.47l29.63-.77,8.57.77,3.9,3.13,1.56,1.56-.78,2.34-6.23,7-29.64,32.76-7.79,9.34-27.29,35.86-7.8,9.37-30.4,33.53-7.8,9.34-28.85,34.32-7.8,9.34L610.66,444l-8.58,9.36L582.6,471.29,574,480.66l-3.89,4.67-3.9,6.23,1.56,4.69,5.45,7,28.85,38.2,8.58,9.36L645,585.13l7.79,9.36,30.42,37.43,7.79,9.34,32,35.87,7.8,9.36,33.53,35.1,7.8,9.34Z" transform="translate(-77.09 -26.6)"/></svg>
