<svg id="Layer_1" data-name="Layer 1" xmlns="http://www.w3.org/2000/svg" viewBox="0 0 948.64 948.64"><defs><style>.cls-1{fill:#00676f;}.cls-2{fill:#f5ee77;}.cls-3{fill:#fff;}</style></defs><circle class="cls-1" cx="474.32" cy="474.32" r="474.32"/><path class="cls-2" d="M366.56,481.27l.93,1.67-.55.93-.56,1.11-1.3.75h-2.41l-10-.75h-3L338,484.8h-3l-11.88.56-2.22-.19-1.67-1.3-6.5-7.24-1.67-2.22-5.75-8.17-1.67-2L296.41,457l-1.86-2.23-6.12-7.24-1.49-2-.93-1.67-1.29-.56-1.12.75-.37,2.41v12.81l-.37,10v3l.19,4.45v2.79l-.19,2.78-.19,1.86-.93.74-2.22.37-5.76.37H268l-8.54-.74-3,.18-9.28.75-1.48-.56-.74-1.11-.19-1.67-.18-2.6v-3l.18-4.64L245,469l-.75-10V446l.19-3,.56-10.21.18-3v-13l-.37-10v-3l.37-10.21v-3l-.37-23v-3l.56-10,.18-2.22.56-.93,1.86-.37,2.78.18,5.75.56h3l8.54-.74h3l8.54.56,2,.18.93.56.56,1.48.18,1.86-.18,2.41-.56,6.12-.19,3,.56,9.83v3l.19,9.84.37,2,1.48.37,2-1.3,5.75-8,10-12.07,5.75-8,1.86-2.23,6.49-7.43,1.49-1.48,1.85-.37,8.54-.56h3l11.32.75,7.06.18h3l7.05-.18,2,.18.93.74.37.38-.19.55-1.48,1.67-7.05,7.8-1.86,2.22-6.5,8.54L344.48,376l-7.24,8-1.86,2.22-6.86,8.17-1.86,2.23L320,404.8l-2,2.23-4.64,4.27-2.05,2.23-.92,1.11-.93,1.49.37,1.11,1.3,1.67,6.87,9.09,2,2.23,8.16,8.17,1.86,2.23,7.24,8.91,1.85,2.22,7.61,8.54,1.86,2.23,8,8.35,1.86,2.23Z" transform="translate(-96.77 -26.6)"/><path class="cls-2" d="M503.15,416.5l-.18,3-.37,4.27-.38,2.78-1.11,5.57-.37,4.27-.37,2.78-.56,3-.74,2.79-1.86,3.89-1.3,2.6-5,8.35-1.67,2.42-1.85,2.41-1.86,2-3,3.15-2,1.86-2.42,1.86-2.22,1.67-3.34,2.22-2.41,1.49-2.79,1.48-2.6,1.12L461,482.94l-2.78.75-5.94,1.85-3.16.93-3,.74L443,488l-3.16.56-3.15.19h-10l-6.3-.38-6.13-.74-2.6-.55-2.78-.75-10-3.34-3-.92-3.15-1.31-5.94-2.59L384,476.63,381.21,475l-2.41-1.85-2.41-2-2.23-2.42-2-2.41-5-5L365.25,459l-1.85-2.41-1.49-2.42-1.48-3.7-2.79-8.36-1.11-3.9-.56-2.78-.56-3-.55-2.78-.56-4.09-.18-2.78-.19-3.15V416.5l.19-3.16.18-3.34.37-3.15.56-3.16.74-3.15.93-3.16.93-2.78,1.11-3,1.3-4.27,1.3-3,.74-1.67,1.49-2.79,2.59-4.08,1.86-2.6.93-1.48,2.23-2.23,3.15-2.6,2.41-1.85,2.42-1.67,5.56-3.71,2.42-1.49,2.6-1.49,2.59-1.29,3.9-1.67,2.6-.93,2.78-.93,2.79-.74,7-1.3,2.78-.56,9.29-1.11,5.94-.37,5.56.37,4.46.18,3.15.38,3.16.55,3.15.74,3.16.56,3,.74,2.78.75,2.79.93,3.89,1.48,2.6,1.11,6.13,3.53,2.41,1.67,2.41,1.86,3.16,3,2,1.86,2,2,1.67,2.23,2.6,3.52,1.48,2.42,1.3,2.41,1.49,2.42,2,3.7,1.48,2.42,1.3,2.78.93,2.6.93,4.27,1.11,5.57.37,3.15.56,3.16Zm-45.29,24.13,1.68-2.6,1.85-4.08,1.12-2.79.92-4.27.37-2.78.38-4.45V416.5l-.19-3.16-.19-3-1.11-5.57-.74-2.59-2-4.09-1.49-2.41-2.6-3.34-1.85-2-2.79-3-2-1.67-4.82-2.79-2.6-1.11-3-.93-3-.55-5.94-.38-2.78.19-4.09.19-2.78.55-4.83,1.3-3,1.12-4.27,2.22-2.59,1.67-3,2.6-2,2.23-2,2.78L397,397.19l-.56,1.12-1.67,3.9-.93,2.78-.55,1.3-.56,2.6-.37,2.6-.19,2.6-.18,2.78v2.79l.18,3,.56,3,.19,1.67.74,2.79.37,1.29L395,434l.74,1.48,1.48,2.6.93,1.49,2,2.59,1.12,1.3,2.22,2.23,3.72,3.15,2.6,1.68,3,1.48,2.79,1.11,3.9,1.3,2.78.56,4.64.55,3.16.19,4.64-.37,3-.37,4.09-.93,2.6-1.11,4.08-2.6,2.23-1.67,3-3,1.85-2Z" transform="translate(-96.77 -26.6)"/><path class="cls-2" d="M644,380.12l-.19,3v27.47l.56,10.76v3l.37,24.49V452l-.19,1.48-.18,3.16-.56,8.91.19,10.76-.19,2.6-.74,2.23-1.49,2-1.85,1.3-1.67.55-2.6.19-9.47.37-3,.19-4.63.18h-3l-2.41-.55-2.22-.93-2.23-1.67-1.67-2.42L604.09,475l-1.67-2.41-7.24-9.09-1.85-2.23-7.24-8.91-1.67-2.42-6.5-9.65L576.25,438,569,429.12l-1.86-2.23-6.87-9.09-1.67-1.49-1.3.56-.56,2.23-.37,9.28v3l.19,9.29v3l.18,10.39v3l-.55,10.39.18,3,1.12,7.43.18,3-.55,2.42-1.3,1.3-1.3.37-2.23.37-1.48.19-3.16.18-8.54-.18h-3l-7.6.37h-3l-2.78-.19-2-.37-1.49-.93-.74-1.3-.37-1.85-.18-1.3V477l.37-6.12.18-3-.55-9.83v-3l.37-22.64.18-3,.56-9.83.18-3v-12.8l-.74-9.84v-3l.74-9.83-.18-3-.74-10-.19-3V361l.19-2.78.37-2.78.37-2.05.56-1.29,1.11-.56,2-.37,5.57-.37,5.57.37h13.92l2.22.18.93.75,1.12,1.67,7.79,8.35,1.86,2.22,6.86,8.91,1.86,2.23,6.87,9.1,1.85,2.22,6.68,9.28,1.68,2.23,7,8.91,1.86,2.22,6.68,9.29,1.48,1.3,1.48.18,1.31-.93v-2l-1.31-7.8-.18-3,.56-8v-3l-.75-11.33v-3l.75-11.33-.19-3-.56-6.87v-4.63l.56-2.41.74-1.49,1.3-.74,2.23-.37h1.67l3.15-.19,8.36.56h3l6.31-.37,2.78.18,4.27.19,2,.37,1.3.56,1.11,1.3.37,2.59.19,1.67.19,3.16-.38,5.75-.37,3Z" transform="translate(-96.77 -26.6)"/><path class="cls-2" d="M780.58,443.41l-.19,3.15-.37,3.16-.56,3-.92,4.08-.93,2.6-1.67,3.71-1.3,2.42-2.23,3.34-1.85,2.23-2.23,2.22-2.23,2-3.71,2.42L760,479.42l-2.79,1.48-2.6,1.3-4.27,1.49-5.56,1.85-3,.56-4.64.74-2.79.37-4.08.37-2.6.19-4.27.18-8.9.56h-4.09l-2.6-.19-4.27-.37-2.78-.37-3.15-.55-2.79-.93-4.08-1.3-2.6-1.3-2.78-1.3-2.6-1.3-2.42-1.48-5.93-4.09-2.23-1.85-3.34-2.6L666.62,469l-2-2-1.49-1.67-.18-1.3.93-1.67.74-.92,1.85-2.05,5.2-4.82,1.67-2,3.16-4.83,1.67-2,1.85-2,2-1.12,2,.38,2,1.48,5.94,4.08,2.78,1.48,2.6,1.31,4.27,2,2.78.92,3,.93,3,.56,4.27.19,3,.18,11.69-.74,3-.37,1.49-.37,2.78-1.12L739,452l1.86-1.86.93-1.3L742.9,446l-.18-3.15-.37-1.49-1.49-2.6-.93-1.11-2.41-1.86-1.49-.55-2.78-1.12-3.16-.74-3.15-.56-17.63-1.67-5.57-1.11-3-.75-4.08-1.48-2.79-.93-2.78-1.3-6.31-3.15-2.42-1.67-2.78-1.67-2.41-1.67-3.16-2.6-1.67-2.41-1.67-2.79-1.11-2.78-1.3-3.9-.56-2.78-.55-4.09-.37-5.93.18-3,.37-4.45.56-2.79.74-2.41.93-2.78,1.85-4.08,1.31-2.6,1.48-2.23,1.86-2,3-2.79,2.42-1.85,2.41-1.67,2.6-1.3,3.52-2,5.57-2.23,2.79-.93,4.27-.74,3-.56,5.57-.74,4.08-.74,3-.37,2.78-.19h3l5.57.56,2.78.37,1.3.37,3,.37,6.31,1.12,3.16.74,3,.93,3.15.93,3,1.11,2.78,1.3,2.79,1.11,3.53,2,2.59,1.3,2.42,1.67,1.67,1.67v1.86l-1.12,2-2,3.71-1.48,2.23-7.06,9.28-2,2.6L755,386.8l-1.49.56-1.3-.19-1.86-.93-2.78-1.66-2.78-1.12-1.3-.56-2.79-.93-1.48-.36-3.16-.75-4.27-.93-3-.18-4.83-.37h-4.83l-3.15.18-3.15.56-3,.93-1.11.56-2.23,1.67-.92,1.11-1.3,2.6-.37,3,.55,2.41,1.49,2.41,2,1.86,2.23,1.11,1.29.56,2.79.56,4.64.55,6.31.38,3.15.55,6.32,1.49,5.93,1.85,4.27.93,2.79.74,5.19,1.86,3.72,1.67,2.59,1.3,2.6,1.48,2.42,1.49,5.38,4.45,2,2.23,1.86,2.23,2.22,3.34,1.49,2.41,1.3,2.79.74,2.78.74,4.08.37,2.78Z" transform="translate(-96.77 -26.6)"/><path class="cls-2" d="M896.56,365.64l-.18,2.79.18,5.57-.18,3-.19,1.48-.37,2.23-.56,1.29-1.11.93-2.23.38h-3l-5.57-.56-3-.18-8.54.55h-3l-4.64-.37h-2.79l-1.3.18-1.85.56-.75,1.12L857.4,387l-.74,10.95v3l.74,11.14-.19,3-.74,11.14-.18,3,.37,10.95v17.08l-.37,11,.18,2.78.93,8.35.18,3-.55,2.23-.93.93-2.41.37-3.53-.19-4.64-.56-3.16-.18-8.35.56h-3l-8.36-.56-2.23-.19-1.11-.55-.37-2v-3.16l.56-7.79.18-3V454.17l.19-11.13v-3l.18-10.95v-3L819.35,415l-.18-3V397.94L818.79,387v-2.6l-.55-1.49-1.86-.36H813.6l-5.94.36h-3.34l-5-.36-3.16-.19-3.16.19-4.26.18h-2.79l-1.48-.18-2-.38-1.12-.74-.74-1.11-.37-1.86v-1.3l-.19-3,.37-5.57v-2.78l-.55-7.05.18-3,.56-2.42.74-1.29,1.12-.56,1.85-.37h4.27l6.87.56h3l10.76-.75h3l10.95.93h3l13.74-.93,10.76.19h3l13.92-.19h13.74l6.12-.37,3.16.19,1.48.18,2.23.37,1.3.75.93,1.29.37,2.23v1.3l.18,2.79Z" transform="translate(-96.77 -26.6)"/><path class="cls-3" d="M314.46,564.38c0,5.38-11.32,5.57-12.07,1.48-1.48-10.58-5.57-24.49-16.89-28.76-8.35-4.09-18.56-5-25.61.18-5.38,5.38-2.22,17.08,4.46,23,17.44,15.58,46.77,26.17,55.68,52,7.23,20.79-10.21,40.28-36.38,40.84-16.34.37-33.22-4.27-46.22-22.09-4.45-6.87-8.72-18.37-8.9-26.36-.19-5.38,14.66-7.79,14.84-2.41.37,7.79,1.86,15.4,7.61,23.39,6.5,8.16,20.42,13.73,31.37,13.73,14.1,0,26.54-6.5,24.13-21.72-3-20-39-36.19-52.9-48.25-13.92-12.62-13.55-30.81-4.08-40.28,13.36-13,40.27-7.42,50.85,6.5,0-1.3-.74-6.68-.74-8-.74-6.12,12.25-4.46,12.81-.56C313.16,534.31,312.79,554.91,314.46,564.38Z" transform="translate(-96.77 -26.6)"/><path class="cls-3" d="M424,522.81c5.56.55,2.41,13.54-2.23,13.36-30.44-.75-8-1.3-38.61-.19,4.65,29.7-.18,90-.18,112.1-.93,6.68-14.66,6.87-14.66,1.3,0-22.08,3.15-54,3.15-78.88,0-12.43-1.3-24.87-2.23-34.7-8,.18-33.22.18-40.27-.19-5.94-.37-2.41-13.92,2.23-13.73C348.41,523,412.62,522.43,424,522.81Z" transform="translate(-96.77 -26.6)"/><path class="cls-3" d="M529.91,528.19c-.37,24.86,5.2,69-3.9,92.43-6.86,16-22.08,33.78-41.39,33.59-25.42-.38-49.55-21.9-49.74-58.65,0-22.27-.18-45.29-2-67.56-.74-8.91,12.07-10.39,15-1.67,1.48,20.23,1.67,44.92,1.67,65.14.37,26.73,13,49,34.89,49,15.22,0,24.68-14.47,29.51-28,6.68-19.12,3-65.89.74-86.12C514,519.47,530.1,521.51,529.91,528.19Z" transform="translate(-96.77 -26.6)"/><path class="cls-3" d="M670.39,578.67c.93,65-71.83,78-103.75,74.05-6.12,0-8.91-5.75-9.09-10,1.67-34.33,2.78-70.16-.75-102.08a32,32,0,0,1-3.9,1.48c-9.65,4.65-13.54-9.09-5.75-13.54,18.56-6.13,39.35-7.24,56.43-7.24C645.89,525,669.83,538.39,670.39,578.67Zm-99.3-41.2c3.9,32.1,3.34,69,1.49,101.15,10.77,1.3,26-.19,40.83-4.83,25.8-8.16,41.76-29.88,41.76-54.19,0-31-19.67-42-52.15-43.43C596.89,535.8,581.12,536,571.09,537.47Z" transform="translate(-96.77 -26.6)"/><path class="cls-3" d="M727.35,522.43c13.36,0,18.75,3.16,18.93,11.33,0,4.26-7.24,6.3-13.55,1.29-3.52,0-12.62.56-18.74.75,0,7.79-.19,39.53.92,55.12,1.12,15.77,1.31,26.54,1.31,48.44,8,.37,19.48.93,27.28,0,5.2-1.11,4.82,13-1.86,13.36-24.13,1.3-36.75-1.85-63.66,0-5.38.38-10-12.06.56-13.54,6.31-.56,20.23-.56,23-.38,0-44.36-.37-47.51-1.85-102.82-5,0-15.22,1.3-24.13,1.3-6.31,0-7.24-13.18.19-13C690.6,524.29,704.52,522.43,727.35,522.43Z" transform="translate(-96.77 -26.6)"/><path class="cls-3" d="M856,563.64a108.69,108.69,0,0,1,5.2,29.87c0,16.52-.37,20.24-5.57,31-8,16.33-25.43,27.1-48.44,28-18.19.74-30.44-10.58-39-21.16-6.49-8.54-12.43-17.63-13.36-36.38-1.49-19.3-3.34-29.69,9.84-48.63,8.35-11.13,23-17.81,33.77-21.34,3-6.49,8.54-6.13,15.22-4.08A66,66,0,0,1,856,563.64Zm-78.88-10.21c-10.39,12.43-7.61,26-7.61,35.82,0,18.93,6.13,27.84,11.32,34.52,6.68,8.16,15.41,14.85,26.17,14.85,15.41,0,33.78-11.32,37.12-25.8,2.6-10,3-18.93,1.12-28-4.64-25.42-13.18-44.17-34.71-49.37C801.39,536.91,784.5,545.08,777.08,553.43Z" transform="translate(-96.77 -26.6)"/><path class="cls-3" d="M889.91,645.11c-.37,4.64-5.38,7.43-9.65,7.43-10.77-1.3-8.54-21,1.67-19.86C888.61,632.86,890.47,639.54,889.91,645.11Z" transform="translate(-96.77 -26.6)"/></svg>
